<?xml version="1.0" encoding="UTF-8" standalone="no"?>
<svg
   viewBox="0 0 48 48"
   width="480px"
   height="480px"
   version="1.1"
   id="svg5"
   sodipodi:docname="bridge-anki.svg"
   inkscape:version="1.3.1 (91b66b0783, 2023-11-16)"
   inkscape:export-filename="bridge-anki.64.png"
   inkscape:export-xdpi="12.8"
   inkscape:export-ydpi="12.8"
   xmlns:inkscape="http://www.inkscape.org/namespaces/inkscape"
   xmlns:sodipodi="http://sodipodi.sourceforge.net/DTD/sodipodi-0.dtd"
   xmlns:xlink="http://www.w3.org/1999/xlink"
   xmlns="http://www.w3.org/2000/svg"
   xmlns:svg="http://www.w3.org/2000/svg">
  <defs
     id="defs5">
    <linearGradient
       id="linearGradient21"
       inkscape:collect="always">
      <stop
         style="stop-color:#ffffff;stop-opacity:1;"
         offset="0"
         id="stop21" />
      <stop
         style="stop-color:#e5e5e5;stop-opacity:1;"
         offset="0.83620691"
         id="stop23" />
      <stop
         style="stop-color:#c6c6c6;stop-opacity:1;"
         offset="1"
         id="stop22" />
    </linearGradient>
    <inkscape:path-effect
       effect="fillet_chamfer"
       id="path-effect6"
       is_visible="true"
       lpeversion="1"
       nodesatellites_param="F,0,0,1,0,0,0,1 @ F,0,0,1,0,0,0,1 @ F,0,0,1,0,0.85671128,0,1 @ F,0,0,1,0,0,0,1"
       radius="0"
       unit="px"
       method="auto"
       mode="F"
       chamfer_steps="1"
       flexible="false"
       use_knot_distance="true"
       apply_no_radius="true"
       apply_with_radius="true"
       only_selected="false"
       hide_knots="false" />
    <linearGradient
       id="linearGradient8"
       inkscape:collect="always">
      <stop
         style="stop-color:#3a5a67;stop-opacity:1;"
         offset="0"
         id="stop8" />
      <stop
         style="stop-color:#2a424c;stop-opacity:1;"
         offset="1"
         id="stop9" />
    </linearGradient>
    <linearGradient
       id="linearGradient6"
       inkscape:collect="always">
      <stop
         style="stop-color:#78909c;stop-opacity:1;"
         offset="0"
         id="stop6" />
      <stop
         style="stop-color:#9ebdcc;stop-opacity:1;"
         offset="1"
         id="stop7" />
    </linearGradient>
    <linearGradient
       inkscape:collect="always"
       xlink:href="#linearGradient6"
       id="linearGradient7"
       x1="32.559509"
       y1="24.942331"
       x2="34.934967"
       y2="5.9779139"
       gradientUnits="userSpaceOnUse"
       gradientTransform="translate(-0.70674847,-0.41226994)" />
    <linearGradient
       inkscape:collect="always"
       xlink:href="#linearGradient8"
       id="linearGradient9"
       x1="12.063804"
       y1="17.471779"
       x2="37.820858"
       y2="43.915951"
       gradientUnits="userSpaceOnUse" />
    <linearGradient
       inkscape:collect="always"
       xlink:href="#linearGradient21"
       id="linearGradient22"
       x1="30.515016"
       y1="16.019551"
       x2="44.75398"
       y2="16.019551"
       gradientUnits="userSpaceOnUse" />
  </defs>
  <sodipodi:namedview
     id="namedview5"
     pagecolor="#ffffff"
     bordercolor="#000000"
     borderopacity="0.25"
     inkscape:showpageshadow="2"
     inkscape:pageopacity="0.0"
     inkscape:pagecheckerboard="0"
     inkscape:deskcolor="#d1d1d1"
     showgrid="false"
     inkscape:zoom="0.42447916"
     inkscape:cx="396.95706"
     inkscape:cy="413.44786"
     inkscape:window-width="1827"
     inkscape:window-height="1046"
     inkscape:window-x="82"
     inkscape:window-y="-11"
     inkscape:window-maximized="1"
     inkscape:current-layer="svg5" />
  <path
     fill="#78909c"
     d="M 39.293252,6.5877301 V 40.58773 c 0,2.76 -2.24,5 -5,5 h -22 c -2.7600005,0 -5.0000005,-2.24 -5.0000005,-5 V 6.5877301 c 0,-2.76 2.24,-5 5.0000005,-5 h 22 c 2.76,0 5,2.24 5,5 z"
     id="path1"
     style="fill:url(#linearGradient7)" />
  <path
     fill="#455a64"
     d="M40,26.63V41c0,2.76-2.24,5-5,5H13c-2.76,0-5-2.24-5-5V15.8C20.8,17.39,31.98,21.28,40,26.63z"
     id="path2"
     style="fill:url(#linearGradient9);fill-opacity:1" />
  <path
     fill="none"
     stroke="#1d323a"
     stroke-linecap="round"
     stroke-linejoin="round"
     stroke-miterlimit="10"
     stroke-width="2"
     d="M40,7 v34c0,2.76-2.24,5-5,5H13c-2.76,0-5-2.24-5-5V7c0-2.76,2.24-5,5-5h22C37.76,2,40,4.24,40,7z"
     id="path3"
     style="stroke:#1a2f36;stroke-opacity:1" />
  <path
     fill="#42a5f5"
     d="M21.094,22.107l3.15,4.828c0.09,0.138,0.242,0.223,0.406,0.227l5.763,0.142 c0.414,0.01,0.637,0.491,0.377,0.814l-3.618,4.488c-0.103,0.128-0.137,0.299-0.09,0.457l1.646,5.525 c0.118,0.397-0.27,0.758-0.657,0.61l-5.386-2.054c-0.154-0.059-0.327-0.038-0.462,0.056l-4.746,3.273 c-0.341,0.235-0.804-0.023-0.783-0.437l0.289-5.757c0.008-0.164-0.065-0.322-0.196-0.422l-4.579-3.502 c-0.329-0.252-0.227-0.772,0.173-0.88l5.565-1.504c0.159-0.043,0.286-0.161,0.341-0.317l1.915-5.437 C20.341,21.823,20.868,21.76,21.094,22.107z"
     id="path4" />
  <path
     fill="none"
     stroke="#f7f7f7"
     stroke-linecap="round"
     stroke-linejoin="round"
     stroke-miterlimit="10"
     stroke-width="2"
     d="M21.094,22.107l3.15,4.828c0.09,0.138,0.242,0.223,0.406,0.227l5.763,0.142c0.414,0.01,0.637,0.491,0.377,0.814l-3.618,4.488 c-0.103,0.128-0.137,0.299-0.09,0.457l1.646,5.525c0.118,0.397-0.27,0.758-0.657,0.61l-5.386-2.054 c-0.154-0.059-0.327-0.038-0.462,0.056l-4.746,3.273c-0.341,0.235-0.804-0.023-0.783-0.437l0.289-5.757 c0.008-0.164-0.065-0.322-0.196-0.422l-4.579-3.502c-0.329-0.252-0.227-0.772,0.173-0.88l5.565-1.504 c0.159-0.043,0.286-0.161,0.341-0.317l1.915-5.437C20.341,21.823,20.868,21.76,21.094,22.107z"
     id="path5" />
  <path
     style="fill:#42a5f5;stroke:url(#linearGradient22);stroke-width:2.2;stroke-dasharray:none;paint-order:stroke fill markers;stroke-linejoin:round;stroke-linecap:round"
     d="M 31.214724,22.969325 42.993865,9.0699387 44.053988,14.606135 Z"
     id="path21" />
  <path
     style="fill:#42a5f5;stroke:#ffffff;stroke-width:2;stroke-linecap:round;stroke-linejoin:round;stroke-dasharray:none;paint-order:stroke fill markers"
     d="M 26.149693,20.84908 35.690798,2.2380368 29.565644,4.004908 Z"
     id="path23" />
</svg>
