<svg width="480px" height="480px" version="1.1" viewBox="0 0 48 48" xmlns="http://www.w3.org/2000/svg" xmlns:xlink="http://www.w3.org/1999/xlink"><defs><linearGradient id="linearGradient7" x1="32.56" x2="34.935" y1="24.942" y2="5.9779" gradientTransform="translate(-.70675 -.41227)" gradientUnits="userSpaceOnUse"><stop stop-color="#78909c" offset="0"/><stop stop-color="#9ebdcc" offset="1"/></linearGradient><linearGradient id="linearGradient9" x1="12.064" x2="37.821" y1="17.472" y2="43.916" gradientUnits="userSpaceOnUse"><stop stop-color="#3a5a67" offset="0"/><stop stop-color="#2a424c" offset="1"/></linearGradient><linearGradient id="linearGradient22" x1="30.515" x2="44.754" y1="16.02" y2="16.02" gradientUnits="userSpaceOnUse"><stop stop-color="#fff" offset="0"/><stop stop-color="#e5e5e5" offset=".83621"/><stop stop-color="#c6c6c6" offset="1"/></linearGradient></defs><g transform="matrix(1 0 -.071699 1 1.7208 0)"><path d="m39.293 6.5877v34c0 2.76-2.24 5-5 5h-22c-2.76 0-5-2.24-5-5v-34c0-2.76 2.24-5 5-5h22c2.76 0 5 2.24 5 5z" fill="url(#linearGradient7)"/><path d="m40 26.63v14.37c0 2.76-2.24 5-5 5h-22c-2.76 0-5-2.24-5-5v-25.2c12.8 1.59 23.98 5.48 32 10.83z" fill="url(#linearGradient9)"/><path d="m40 7v34c0 2.76-2.24 5-5 5h-22c-2.76 0-5-2.24-5-5v-34c0-2.76 2.24-5 5-5h22c2.76 0 5 2.24 5 5z" fill="none" stroke="#1a2f36" stroke-linecap="round" stroke-linejoin="round" stroke-miterlimit="10" stroke-width="2"/></g><path d="m21.094 22.107 3.15 4.828c0.09 0.138 0.242 0.223 0.406 0.227l5.763 0.142c0.414 0.01 0.637 0.491 0.377 0.814l-3.618 4.488c-0.103 0.128-0.137 0.299-0.09 0.457l1.646 5.525c0.118 0.397-0.27 0.758-0.657 0.61l-5.386-2.054c-0.154-0.059-0.327-0.038-0.462 0.056l-4.746 3.273c-0.341 0.235-0.804-0.023-0.783-0.437l0.289-5.757c8e-3 -0.164-0.065-0.322-0.196-0.422l-4.579-3.502c-0.329-0.252-0.227-0.772 0.173-0.88l5.565-1.504c0.159-0.043 0.286-0.161 0.341-0.317l1.915-5.437c0.139-0.394 0.666-0.457 0.892-0.11z" fill="#42a5f5"/><g stroke-linecap="round" stroke-linejoin="round"><path d="m21.094 22.107 3.15 4.828c0.09 0.138 0.242 0.223 0.406 0.227l5.763 0.142c0.414 0.01 0.637 0.491 0.377 0.814l-3.618 4.488c-0.103 0.128-0.137 0.299-0.09 0.457l1.646 5.525c0.118 0.397-0.27 0.758-0.657 0.61l-5.386-2.054c-0.154-0.059-0.327-0.038-0.462 0.056l-4.746 3.273c-0.341 0.235-0.804-0.023-0.783-0.437l0.289-5.757c8e-3 -0.164-0.065-0.322-0.196-0.422l-4.579-3.502c-0.329-0.252-0.227-0.772 0.173-0.88l5.565-1.504c0.159-0.043 0.286-0.161 0.341-0.317l1.915-5.437c0.139-0.394 0.666-0.457 0.892-0.11z" fill="none" stroke="#f7f7f7" stroke-miterlimit="10" stroke-width="2"/><path d="m31.215 22.969 11.779-13.899 1.0601 5.5362z" fill="#62aef6" stroke="url(#linearGradient22)" stroke-width="2.2" style="paint-order:stroke fill markers"/><path d="m26.15 20.849 9.5411-18.611-6.1252 1.7669z" fill="#62aef6" stroke="#fff" stroke-width="2" style="paint-order:stroke fill markers"/></g></svg>
